<svg width="17" height="17" viewBox="0 0 17 17" fill="none" xmlns="http://www.w3.org/2000/svg">
<g clip-path="url(#clip0)">
<path fill-rule="evenodd" clip-rule="evenodd" d="M11.1133 16.7677C14.5296 15.6654 17 12.4597 17 8.67691C17 3.98146 13.1944 0.17691 8.5 0.17691C3.80455 0.17691 0 3.98249 0 8.67691C0 12.5387 2.57427 15.7979 6.10008 16.8335C6.26786 16.7231 6.34144 16.483 6.34144 16.3324C6.34144 16.126 6.33395 15.5777 6.32967 14.8507C3.9056 15.3771 3.39414 13.6824 3.39414 13.6824C2.99771 12.6757 2.42633 12.4077 2.42633 12.4077C1.63507 11.8674 2.48625 11.8781 2.48625 11.8781C3.36097 11.9396 3.82107 12.7763 3.82107 12.7763C4.59842 14.1077 5.86101 13.7231 6.35749 13.5C6.43667 12.9373 6.6619 12.5532 6.91068 12.3355C4.97559 12.1156 2.941 11.3678 2.941 8.02882C2.941 7.07772 3.28072 6.29941 3.83819 5.69066C3.74831 5.47027 3.44925 4.5839 3.92379 3.3846C3.92379 3.3846 4.65513 3.15031 6.32004 4.27793C7.015 4.08428 7.76079 3.988 8.50176 3.98425C9.2422 3.988 9.98745 4.08428 10.6835 4.27793C12.3473 3.15031 13.0776 3.3846 13.0776 3.3846C13.5532 4.5839 13.2541 5.47027 13.1648 5.69066C13.7233 6.29941 14.0604 7.07772 14.0604 8.02882C14.0604 11.3764 12.0226 12.113 10.0816 12.3285C10.394 12.5976 10.6728 13.1293 10.6728 13.9424C10.6728 15.1069 10.6621 16.0468 10.6621 16.3324C10.6621 16.5375 10.7836 16.7719 11.1133 16.7677Z" fill="#637381"/>
</g>
<defs>
<clipPath id="clip0">
<rect width="17" height="17" fill="white"/>
</clipPath>
</defs>
</svg>
