<svg width="90" height="30" viewBox="0 0 90 30" fill="none" xmlns="http://www.w3.org/2000/svg">
<path fill-rule="evenodd" clip-rule="evenodd" d="M71.4729 22.2674H69.5758L70.7114 18.965L68.3333 12.1392H70.3373L71.6867 16.4779L73.0361 12.1392H75L71.4729 22.2674ZM65.5679 12.1392V12.6504C65.6926 12.4385 65.8975 12.2704 66.1825 12.1461C66.4675 12.0217 66.7659 11.9595 67.0776 11.9595C67.2825 11.9595 67.4806 11.9918 67.6721 12.0563C67.8636 12.1207 68.0128 12.2267 68.1197 12.3741L67.4651 14.046C67.2424 13.8433 66.9975 13.742 66.7302 13.742C66.5076 13.742 66.305 13.8272 66.1224 13.9976C65.9398 14.168 65.7906 14.4329 65.6748 14.7921V19.6145H63.8578V12.1392H65.5679ZM61.0855 19.0693C60.6014 19.5042 60.0373 19.806 59.4353 19.806C57.3502 19.806 56.4762 18.0554 56.4762 15.896C56.4762 13.7366 57.3502 11.986 59.4353 11.986C60.0834 11.986 60.6341 12.2673 61.0855 12.6897V12.0873H62.9371V19.7046H61.0855V19.0693ZM61.0855 17.1815C60.8537 17.7007 60.4438 18.025 59.8514 18.0355C58.7312 18.0556 58.3014 17.102 58.2812 15.9166C58.261 14.7312 58.6581 13.7628 59.7783 13.7428C60.3558 13.7324 60.8241 14.1107 61.0855 14.7192V17.1815ZM51.126 10.1771L52.9429 9.54144V19.6144H51.126V10.1771ZM53.8915 10.1771L55.7085 9.54144V19.6144H53.8915V10.1771ZM50.1774 12.1392V19.6145H48.347V12.1392H50.1774ZM48.347 10.481C48.347 10.2139 48.4317 9.98362 48.6009 9.79017C48.7701 9.59672 48.9883 9.5 49.2555 9.5C49.5049 9.5 49.7209 9.59672 49.9035 9.79017C50.0861 9.98362 50.1774 10.2139 50.1774 10.481C50.1774 10.739 50.0861 10.9578 49.9035 11.1374C49.7209 11.317 49.5049 11.4068 49.2555 11.4068C48.9883 11.4068 48.7701 11.317 48.6009 11.1374C48.4317 10.9578 48.347 10.739 48.347 10.481ZM41.6403 12.1392H43.2301V12.761C43.337 12.5399 43.5508 12.351 43.8714 12.1944C44.192 12.0378 44.5439 11.9595 44.9269 11.9595C45.292 11.9595 45.6349 12.0447 45.9556 12.2152C46.2762 12.3856 46.5546 12.6366 46.7906 12.9682C47.0266 13.2998 47.2137 13.7098 47.3517 14.198C47.4898 14.6862 47.5588 15.2435 47.5588 15.8699C47.5588 16.5147 47.492 17.0812 47.3584 17.5695C47.2248 18.0577 47.0422 18.4676 46.8106 18.7992C46.5791 19.1308 46.3052 19.3796 45.989 19.5454C45.6728 19.7112 45.3277 19.7941 44.9536 19.7941C44.5528 19.7941 44.2299 19.7296 43.985 19.6006C43.74 19.4717 43.5641 19.3105 43.4572 19.117V22.097L41.6403 22.5V12.1392ZM44.4993 18.0116C45.3811 18.0116 45.822 17.3023 45.822 15.8837C45.822 15.1928 45.7129 14.6678 45.4947 14.3085C45.2765 13.9492 44.9625 13.7696 44.5528 13.7696C44.2499 13.7696 43.9983 13.8779 43.7979 14.0943C43.5975 14.3108 43.4439 14.5664 43.337 14.8612V16.9891C43.4617 17.3299 43.6287 17.5856 43.838 17.756C44.0473 17.9264 44.2678 18.0116 44.4993 18.0116ZM39.0718 19.0693C38.5877 19.5042 38.0236 19.806 37.4216 19.806C35.3365 19.806 34.4625 18.0554 34.4625 15.896C34.4625 13.7366 35.3365 11.986 37.4216 11.986C38.0697 11.986 38.6205 12.2673 39.0718 12.6897V12.0873H40.9234V19.7046H39.0718V19.0693ZM39.0718 17.1815C38.84 17.7007 38.4301 18.025 37.8377 18.0355C36.7175 18.0556 36.2877 17.102 36.2675 15.9166C36.2474 14.7312 36.6444 13.7628 37.7646 13.7428C38.3421 13.7324 38.8104 14.1107 39.0718 14.7192V17.1815ZM33.7108 10.0527V19.6145H31.8938V14.6401L29.8497 19.6145H28.8611L26.817 14.6401V19.6145H25V10.0527H26.8704L29.3554 16.0772L31.8404 10.0527H33.7108Z" fill="white"/>
<g clip-path="url(#clip0)">
<path fill-rule="evenodd" clip-rule="evenodd" d="M7.24404 13.2827C6.80396 13.408 6.74018 13.8993 7.08892 14.0884C7.21354 14.1559 12.3586 16.8822 12.5683 16.9928C12.7781 17.1034 13.0278 17.041 13.1549 16.8536C13.2283 16.7455 13.4305 16.4125 13.5885 16.1502C13.7043 15.9579 13.5943 15.6864 13.3965 15.5923C13.2773 15.5356 12.533 15.1392 11.9414 14.8241C11.5519 14.6166 11.2285 14.4443 11.1932 14.4275C10.7675 14.2241 10.9207 13.7413 11.236 13.6369L12.8329 13.108C12.9934 13.0548 13.1308 12.918 13.185 12.759L13.7155 11.2028C13.877 10.7292 14.3572 10.8417 14.5166 11.1346C14.6447 11.37 14.8475 11.7335 15.0509 12.0981C15.354 12.6414 15.6585 13.1873 15.7192 13.3153C15.8207 13.5293 16.0339 13.6254 16.2562 13.4873C16.3083 13.455 16.4017 13.4001 16.5084 13.3374C16.6535 13.2523 16.8233 13.1525 16.9478 13.075C17.164 12.9403 17.2255 12.7069 17.1301 12.4961C17.0644 12.3511 15.746 9.95367 14.9063 8.4269C14.5257 7.73477 14.2434 7.22157 14.2209 7.17827C14.0179 6.78742 13.5196 6.7889 13.382 7.19263L11.9106 11.5085C11.8551 11.6713 11.7262 11.7988 11.561 11.8542C10.6447 12.1617 7.61689 13.1765 7.24404 13.2827ZM21.033 21.4598C20.8262 21.3483 14.2752 17.8823 14.005 17.7443C13.7348 17.6064 13.669 17.3693 13.8136 17.1123C13.8871 16.9816 14.0465 16.7209 14.1764 16.5108C14.355 16.2218 14.6153 16.221 14.7623 16.3066C14.8534 16.3598 15.6883 16.8008 16.3412 17.1457C16.7409 17.3568 17.0724 17.5319 17.1235 17.5601C17.4411 17.735 17.9094 17.3345 17.6993 16.9837C17.599 16.8162 16.7225 15.2176 16.4441 14.6906C16.3174 14.4509 16.352 14.2353 16.6344 14.0918C16.7742 14.0208 17.0242 13.8725 17.2412 13.7409C17.4627 13.6066 17.7574 13.7075 17.8773 13.9078C17.9563 14.0398 19.5264 16.9281 20.6191 18.9381C21.1832 19.9758 21.6201 20.7795 21.6586 20.8486C21.8835 21.2515 21.4462 21.6825 21.033 21.4598Z" fill="#05CB63"/>
</g>
<defs>
<clipPath id="clip0">
<rect width="16" height="16" fill="white" transform="translate(6.36499 6.13745)"/>
</clipPath>
</defs>
</svg>
